<?xml version="1.0" encoding="UTF-8" standalone="no"?>
<svg
   version="1.0"
   width="424.00003pt"
   height="284.44376pt"
   viewBox="302 329 424.00003 284.44376"
   preserveAspectRatio="xMidYMid"
   id="svg7"
   sodipodi:docname="logo.svg"
   inkscape:export-filename="logo.svg"
   inkscape:export-xdpi="96"
   inkscape:export-ydpi="96"
   xmlns:inkscape="http://www.inkscape.org/namespaces/inkscape"
   xmlns:sodipodi="http://sodipodi.sourceforge.net/DTD/sodipodi-0.dtd"
   xmlns="http://www.w3.org/2000/svg"
   xmlns:svg="http://www.w3.org/2000/svg">
  <defs
     id="defs7" />
  <sodipodi:namedview
     id="namedview7"
     pagecolor="#ffffff"
     bordercolor="#666666"
     borderopacity="1.0"
     inkscape:showpageshadow="2"
     inkscape:pageopacity="0.0"
     inkscape:pagecheckerboard="0"
     inkscape:deskcolor="#d1d1d1"
     inkscape:document-units="pt" />
  <g
     transform="matrix(0.1,0,0,-0.1,-6.9999998,1010.775)"
     fill="#000000"
     stroke="none"
     id="g7">
    <path
       d="m 5060,6805 c -273,-39 -469,-119 -641,-261 -184,-152 -322,-341 -384,-523 l -21,-65 -70,-21 c -152,-47 -264,-135 -334,-261 -21,-40 -25,-42 -77,-46 -83,-7 -209,-75 -281,-152 -104,-112 -162,-253 -162,-396 1,-239 138,-459 355,-567 121,-60 173,-66 535,-57 274,7 292,8 270,23 -14,9 -62,44 -108,78 l -82,62 -233,3 -232,3 -75,36 c -363,173 -357,685 9,805 50,16 139,16 183,-1 12,-5 17,4 21,39 9,63 58,156 103,196 75,65 198,97 278,70 21,-6 39,-10 41,-8 2,2 9,35 15,73 16,104 46,189 104,294 123,227 356,395 654,473 105,28 132,31 272,31 181,1 271,-17 431,-88 213,-94 418,-275 494,-436 l 17,-36 93,-10 c 239,-28 403,-168 464,-398 10,-40 11,-40 59,-40 70,0 191,-62 262,-135 68,-69 105,-135 130,-236 33,-126 25,-189 -40,-329 -63,-137 -169,-231 -319,-282 -62,-21 -82,-23 -330,-22 h -263 l -27,-29 c -14,-16 -49,-46 -77,-66 -42,-29 -64,-53 -64,-69 0,-1 159,-1 352,-1 373,2 411,6 522,54 250,107 426,364 426,621 0,214 -111,441 -268,547 -80,55 -173,102 -199,102 -18,0 -29,13 -52,58 -69,136 -177,243 -316,313 -68,33 -154,59 -200,59 -27,0 -36,9 -73,64 -55,84 -212,240 -311,310 -151,105 -373,193 -560,221 -113,17 -175,17 -291,0 z"
       id="path1" />
    <path
       d="m 5056,5908 c -8,-13 -18,-41 -21,-63 -17,-103 -23,-114 -63,-121 -20,-4 -71,-20 -112,-35 -41,-16 -78,-29 -81,-29 -4,0 -44,25 -89,55 l -83,54 -31,-21 c -50,-35 -86,-71 -86,-87 0,-9 13,-43 29,-77 49,-103 48,-112 -5,-180 -25,-32 -51,-71 -56,-86 l -10,-28 h -102 c -116,0 -129,-6 -145,-65 -20,-73 -17,-79 67,-140 42,-31 80,-64 84,-73 4,-9 7,-44 7,-77 l 1,-61 -65,-42 c -104,-69 -106,-73 -68,-164 17,-41 24,-44 138,-54 86,-8 88,-9 128,-83 11,-19 32,-51 48,-71 l 30,-37 -24,-74 c -42,-131 -43,-122 14,-173 28,-25 56,-46 62,-46 6,0 46,23 89,52 79,51 79,51 126,40 50,-11 148,-46 170,-60 7,-5 22,-47 33,-95 l 20,-86 62,-6 c 34,-3 76,-2 92,3 28,7 32,15 50,88 11,43 23,84 27,90 4,6 53,26 109,44 l 102,34 36,-20 c 20,-12 59,-35 87,-53 l 52,-33 38,20 c 22,11 50,32 63,46 l 24,26 -38,101 -38,100 22,27 c 12,15 35,47 51,72 54,83 50,81 130,91 124,15 134,21 159,88 11,32 21,62 21,67 0,5 -35,32 -78,59 l -77,50 -2,80 -3,80 80,49 c 60,37 80,54 80,71 0,30 -29,112 -44,124 -7,6 -55,13 -108,17 -93,7 -96,7 -113,38 -10,17 -36,53 -57,80 -44,57 -46,75 -14,147 44,101 43,111 -10,158 -26,22 -56,41 -66,41 -11,0 -52,-23 -92,-51 l -72,-50 -125,41 -125,42 -17,81 c -10,50 -23,87 -34,94 -10,8 -47,13 -90,13 -64,0 -74,-3 -87,-22 z m 267,-394 c 79,-19 137,-55 218,-135 99,-97 157,-199 184,-324 14,-64 6,-201 -15,-265 -61,-180 -257,-361 -420,-388 -108,-18 -131,-19 -212,-11 -73,7 -198,51 -198,69 0,4 -14,13 -31,21 -17,7 -61,42 -98,78 -108,108 -161,232 -161,381 0,96 20,173 70,276 83,170 234,287 405,314 63,10 182,3 258,-16 z"
       id="path2" />
    <path
       d="m 5049,5420 c -63,-16 -146,-57 -161,-79 -15,-21 -12,-25 59,-98 l 74,-76 52,16 c 97,29 114,30 183,7 l 66,-22 57,55 c 31,30 64,59 75,64 17,10 16,13 -20,49 -54,54 -143,84 -259,89 -49,3 -106,0 -126,-5 z"
       id="path3" />
    <path
       d="m 4783,5208 c -43,-46 -77,-138 -81,-218 -6,-111 9,-179 61,-277 18,-35 42,-27 82,27 20,27 50,58 66,67 23,14 29,23 24,38 -14,45 -17,147 -6,190 11,45 11,46 -21,78 -18,18 -49,52 -68,76 l -35,43 z"
       id="path4" />
    <path
       d="m 5466,5136 -64,-64 10,-43 c 10,-44 6,-153 -8,-196 -5,-17 -2,-23 9,-23 9,0 41,-26 71,-57 64,-67 68,-65 112,30 26,55 29,73 29,162 0,129 -40,255 -80,255 -7,0 -43,-29 -79,-64 z"
       id="path5" />
    <path
       d="m 5121,5080 c -18,-4 -45,-20 -60,-34 -23,-23 -26,-35 -26,-90 0,-78 22,-114 81,-135 58,-20 110,-8 156,39 34,34 38,43 38,89 0,29 -4,61 -10,71 -27,50 -110,78 -179,60 z"
       id="path6" />
    <path
       d="m 5280,4726 c -47,-28 -157,-29 -218,-2 l -43,20 -65,-68 c -35,-38 -64,-76 -64,-85 1,-22 64,-64 130,-87 104,-34 265,-16 370,43 75,42 74,54 -6,133 l -69,68 z"
       id="path7" />
  </g>
</svg>
