<?xml version="1.0" encoding="UTF-8" standalone="no"?>
<svg
   width="1080"
   height="700"
   viewBox="0 119 1080 700"
   version="1.1"
   xml:space="preserve"
   style="clip-rule:evenodd;fill-rule:evenodd;stroke-linejoin:round;stroke-miterlimit:2"
   id="svg1"
   xmlns="http://www.w3.org/2000/svg"
   xmlns:svg="http://www.w3.org/2000/svg"><defs
   id="defs1" />
    <g
   transform="matrix(1.6673,0,0,1.6673,-202.316,-412.653)"
   id="g1">
        <path
   d="m 298.693,413.872 c -22.663,3.012 -44.892,10.571 -63.376,24.294 -20.497,15.217 -37.67,35.881 -46.624,59.963 -18.593,50.007 -6.352,110.135 34.873,145.389 13.226,11.31 26.443,19.478 42.758,25.635 15.508,5.852 32.39,9.05 48.986,8.967 17.095,-0.086 33.64,-3.286 49.409,-9.955 l 3.162,42.578 c -10.726,3.553 -21.771,6.065 -32.978,7.499 l -11.408,-25.049 c -10.875,0.792 -21.802,0.39 -32.582,-1.197 l -13.363,24.139 c -11.061,-2.253 -21.874,-5.567 -32.286,-9.896 l 2.727,-27.399 c -9.801,-4.721 -19.048,-10.503 -27.572,-17.241 l -23.69,14.291 c -8.433,-7.454 -16.117,-15.706 -22.944,-24.639 l 16.132,-22.407 c -6.102,-8.97 -11.191,-18.583 -15.175,-28.665 l -27.67,0.613 c -3.544,-10.659 -6.04,-21.637 -7.453,-32.78 l 25.214,-11.411 c -0.767,-10.814 -0.335,-21.683 1.288,-32.409 l -24.235,-13.228 c 2.294,-11.007 5.654,-21.77 10.034,-32.138 l 27.541,2.642 c 4.773,-9.761 10.61,-18.973 17.406,-27.468 L 182.56,430.475 c 7.517,-8.407 15.834,-16.07 24.833,-22.884 l 22.487,15.987 c 9.034,-6.093 18.713,-11.179 28.861,-15.168 l -0.545,-27.519 c 10.726,-3.553 21.77,-6.064 32.978,-7.498 l 8.581,19.05 c -0.022,0.026 -0.043,0.053 -0.065,0.08 l 0.1,-0.001 -0.035,-0.079 c 4.9,-6.105 10.984,-12.324 17.088,-17.214 l -6.292,-18.921 c 6.622,-4.732 13.687,-8.811 21.097,-12.18 l 13.24,14.909 c 7.319,-2.853 14.929,-4.892 22.693,-6.081 l 4.012,-19.532 c 8.101,-0.787 16.26,-0.787 24.361,0 l 4.012,19.532 c 7.764,1.189 15.374,3.228 22.693,6.081 l 13.24,-14.909 c 7.41,3.369 14.475,7.448 21.097,12.18 l -6.292,18.921 c 5.767,4.62 11.038,9.823 15.731,15.527 l -0.431,0.431 c 1.885,-1.776 3.735,-3.439 5.272,-4.671 l -6.862,-20.638 c 7.223,-5.161 14.929,-9.61 23.01,-13.285 l 14.442,16.262 c 7.982,-3.112 16.283,-5.336 24.752,-6.632 l 4.376,-21.304 c 8.836,-0.859 17.734,-0.859 26.57,0 l 4.376,21.304 c 8.469,1.296 16.769,3.52 24.752,6.632 l 14.441,-16.262 c 8.082,3.675 15.788,8.124 23.011,13.285 l -6.863,20.638 c 6.687,5.357 12.763,11.433 18.12,18.12 l 20.638,-6.863 c 5.161,7.223 9.61,14.929 13.285,23.011 l -16.262,14.441 c 3.112,7.983 5.336,16.283 6.632,24.752 l 21.304,4.376 c 0.859,8.836 0.859,17.734 0,26.57 l -21.304,4.376 c -0.667,4.363 -1.581,8.68 -2.736,12.933 1.686,0.383 3.363,0.812 5.027,1.286 l 10.572,-14.443 c 6.905,2.383 13.564,5.431 19.882,9.1 l -4.022,17.44 c 5.893,3.87 11.343,8.378 16.25,13.44 l 16.376,-7.222 c 4.789,5.517 9.032,11.486 12.669,17.822 l -12.203,13.093 c 3.169,6.298 5.634,12.926 7.353,19.764 l 17.793,1.934 c 1.389,7.172 2.079,14.463 2.061,21.768 l -17.115,5.238 c -0.405,7.039 -1.584,14.012 -3.515,20.793 l 14.443,10.571 c -2.383,6.906 -5.431,13.564 -9.1,19.882 l -17.44,-4.022 c -3.87,5.894 -8.378,11.343 -13.44,16.25 l 7.222,16.377 c -5.517,4.789 -11.486,9.031 -17.822,12.668 l -13.093,-12.203 c -6.298,3.169 -12.926,5.635 -19.764,7.353 l -1.934,17.794 c -7.172,1.388 -14.463,2.078 -21.768,2.06 l -5.238,-17.115 c -7.039,-0.405 -14.012,-1.584 -20.793,-3.514 l -10.571,14.443 c -6.906,-2.384 -13.564,-5.432 -19.882,-9.1 l 4.022,-17.441 c -4.48,-2.942 -8.703,-6.251 -12.626,-9.893 -3.455,3.739 -7.186,7.217 -11.164,10.404 l 6.005,18.062 c -6.321,4.518 -13.066,8.412 -20.138,11.628 l -12.64,-14.233 c -6.986,2.724 -14.251,4.67 -21.663,5.805 l -3.83,18.645 c -7.733,0.752 -15.521,0.752 -23.254,0 l -3.83,-18.645 c -7.413,-1.135 -14.677,-3.081 -21.663,-5.805 l -12.64,14.233 c -7.073,-3.216 -13.818,-7.11 -20.139,-11.628 l 6.006,-18.062 C 425.5,678.071 420.182,672.752 415.494,666.9 l -18.063,6.006 c -4.517,-6.321 -8.411,-13.066 -11.627,-20.138 l 14.232,-12.64 c -2.723,-6.986 -4.67,-14.251 -5.804,-21.663 l -18.646,-3.83 c -0.751,-7.733 -0.751,-15.521 0,-23.254 l 18.646,-3.83 c 1.134,-7.413 3.081,-14.677 5.804,-21.663 l -14.232,-12.64 c 3.216,-7.073 7.11,-13.818 11.627,-20.139 l 18.063,6.006 c 4.688,-5.852 10.006,-11.17 15.858,-15.859 l -6.006,-18.062 c 6.321,-4.517 13.066,-8.411 20.139,-11.627 l 23.475,21.707 c -32.257,15.635 -60.285,49.73 -60.039,87.009 0.31,46.99 41.12,88.954 89.062,87.436 16.986,-0.539 24.677,-3.395 39.775,-10.874 13.472,-6.674 24.296,-20.103 33.058,-31.59 9.312,9.81 19.926,17.528 32.144,23.335 11.588,5.508 21.651,7.849 34.502,7.665 16.879,-0.243 35.988,-5.021 49.531,-15.532 10.379,-8.055 17.926,-18.71 22.998,-30.774 8.191,-19.483 7.95,-39.774 2.373,-59.835 -8.274,-29.761 -41.58,-51.184 -71.495,-51.287 l -4.749,-7.726 c 2.886,-6.199 7.16,-15.31 8.334,-22.152 7.186,-41.878 -17.804,-88.155 -57.15,-104.228 -37.681,-15.391 -82.113,-6.544 -112.068,20.512 0,0 -10.324,1.019 -12.566,1.445 -26.191,-50.081 -86.689,-51.003 -122.794,-31.315 -12.749,6.951 -27.875,20.108 -35.569,35.978 0,0 -2.97,0.252 -5.614,0.531 z"
   id="path1" />
    </g>
</svg>
